<svg width="25" height="25" viewBox="0 0 25 25" fill="none" xmlns="http://www.w3.org/2000/svg">
<mask id="mask0_854_152" style="mask-type:alpha" maskUnits="userSpaceOnUse" x="0" y="0" width="25" height="25">
<rect width="25" height="25" fill="#D9D9D9"/>
</mask>
<g mask="url(#mask0_854_152)">
<path d="M12.4997 16.6666C13.333 16.6666 14.0752 16.4192 14.7262 15.9244C15.3773 15.4296 15.8504 14.7916 16.1455 14.0103H8.85384C9.14898 14.7916 9.62207 15.4296 10.2731 15.9244C10.9242 16.4192 11.6663 16.6666 12.4997 16.6666ZM9.89551 12.4999C10.3295 12.4999 10.6985 12.348 11.0023 12.0442C11.3061 11.7404 11.458 11.3714 11.458 10.9374C11.458 10.5034 11.3061 10.1345 11.0023 9.83065C10.6985 9.52683 10.3295 9.37492 9.89551 9.37492C9.46148 9.37492 9.09256 9.52683 8.78874 9.83065C8.48492 10.1345 8.33301 10.5034 8.33301 10.9374C8.33301 11.3714 8.48492 11.7404 8.78874 12.0442C9.09256 12.348 9.46148 12.4999 9.89551 12.4999ZM15.1038 12.4999C15.5379 12.4999 15.9068 12.348 16.2106 12.0442C16.5144 11.7404 16.6663 11.3714 16.6663 10.9374C16.6663 10.5034 16.5144 10.1345 16.2106 9.83065C15.9068 9.52683 15.5379 9.37492 15.1038 9.37492C14.6698 9.37492 14.3009 9.52683 13.9971 9.83065C13.6933 10.1345 13.5413 10.5034 13.5413 10.9374C13.5413 11.3714 13.6933 11.7404 13.9971 12.0442C14.3009 12.348 14.6698 12.4999 15.1038 12.4999ZM7.94238 6.66659L10.859 2.89054C11.0674 2.61277 11.3148 2.40877 11.6012 2.27856C11.8877 2.14836 12.1872 2.08325 12.4997 2.08325C12.8122 2.08325 13.1117 2.14836 13.3981 2.27856C13.6846 2.40877 13.932 2.61277 14.1403 2.89054L17.057 6.66659L21.484 8.15096C21.9354 8.28985 22.2913 8.54593 22.5518 8.91919C22.8122 9.29245 22.9424 9.70478 22.9424 10.1562C22.9424 10.3645 22.912 10.5728 22.8512 10.7812C22.7905 10.9895 22.6906 11.1892 22.5518 11.3801L19.6872 15.4426L19.7913 19.7135C19.8087 20.3211 19.6091 20.8333 19.1924 21.2499C18.7757 21.6666 18.2896 21.8749 17.734 21.8749C17.6993 21.8749 17.5084 21.8489 17.1611 21.7968L12.4997 20.4947L7.83822 21.7968C7.75141 21.8315 7.65592 21.8532 7.55176 21.8619C7.44759 21.8706 7.3521 21.8749 7.2653 21.8749C6.70974 21.8749 6.22363 21.6666 5.80697 21.2499C5.3903 20.8333 5.19065 20.3211 5.20801 19.7135L5.31217 15.4166L2.47363 11.3801C2.33474 11.1892 2.23492 10.9895 2.17415 10.7812C2.11339 10.5728 2.08301 10.3645 2.08301 10.1562C2.08301 9.72214 2.20888 9.31849 2.46061 8.94523C2.71235 8.57197 3.06391 8.30721 3.5153 8.15096L7.94238 6.66659ZM9.21842 8.46346L4.16634 10.1301L7.39551 14.7916L7.29134 19.7655L12.4997 18.3333L17.708 19.7916L17.6038 14.7916L20.833 10.1822L15.7809 8.46346L12.4997 4.16659L9.21842 8.46346Z" fill="#6F5434"/>
</g>
</svg>
