<svg width="25" height="25" viewBox="0 0 25 25" fill="none" xmlns="http://www.w3.org/2000/svg">
<mask id="mask0_711_184" style="mask-type:alpha" maskUnits="userSpaceOnUse" x="0" y="0" width="25" height="25">
<rect width="25" height="25" fill="#D9D9D9"/>
</mask>
<g mask="url(#mask0_711_184)">
<path d="M9.63542 22.9167L9.21875 19.5834C8.99306 19.4966 8.78038 19.3924 8.58073 19.2709C8.38108 19.1493 8.18576 19.0191 7.99479 18.8802L4.89583 20.1823L2.03125 15.2344L4.71354 13.2032C4.69618 13.0816 4.6875 12.9645 4.6875 12.8516V12.1485C4.6875 12.0356 4.69618 11.9184 4.71354 11.7969L2.03125 9.76567L4.89583 4.81775L7.99479 6.11983C8.18576 5.98094 8.38542 5.85073 8.59375 5.72921C8.80208 5.60768 9.01042 5.50351 9.21875 5.41671L9.63542 2.08337H15.3646L15.7812 5.41671C16.0069 5.50351 16.2196 5.60768 16.4193 5.72921C16.6189 5.85073 16.8142 5.98094 17.0052 6.11983L20.1042 4.81775L22.9688 9.76567L20.2865 11.7969C20.3038 11.9184 20.3125 12.0356 20.3125 12.1485V12.8516C20.3125 12.9645 20.2951 13.0816 20.2604 13.2032L22.9427 15.2344L20.0781 20.1823L17.0052 18.8802C16.8142 19.0191 16.6146 19.1493 16.4062 19.2709C16.1979 19.3924 15.9896 19.4966 15.7812 19.5834L15.3646 22.9167H9.63542ZM11.4583 20.8334H13.5156L13.8802 18.073C14.4184 17.9341 14.9175 17.7301 15.3776 17.461C15.8377 17.1919 16.2587 16.8664 16.6406 16.4844L19.2188 17.5521L20.2344 15.7813L17.9948 14.0886C18.0816 13.8455 18.1424 13.5895 18.1771 13.3204C18.2118 13.0513 18.2292 12.7778 18.2292 12.5C18.2292 12.2223 18.2118 11.9488 18.1771 11.6797C18.1424 11.4106 18.0816 11.1546 17.9948 10.9115L20.2344 9.21879L19.2188 7.44796L16.6406 8.54171C16.2587 8.1424 15.8377 7.8082 15.3776 7.5391C14.9175 7.27001 14.4184 7.06601 13.8802 6.92712L13.5417 4.16671H11.4844L11.1198 6.92712C10.5816 7.06601 10.0825 7.27001 9.6224 7.5391C9.16233 7.8082 8.74132 8.13372 8.35938 8.51567L5.78125 7.44796L4.76562 9.21879L7.00521 10.8855C6.9184 11.1459 6.85764 11.4063 6.82292 11.6667C6.78819 11.9271 6.77083 12.2049 6.77083 12.5C6.77083 12.7778 6.78819 13.0469 6.82292 13.3073C6.85764 13.5677 6.9184 13.8282 7.00521 14.0886L4.76562 15.7813L5.78125 17.5521L8.35938 16.4584C8.74132 16.8577 9.16233 17.1919 9.6224 17.461C10.0825 17.7301 10.5816 17.9341 11.1198 18.073L11.4583 20.8334ZM12.5521 16.1459C13.559 16.1459 14.4184 15.79 15.1302 15.0782C15.842 14.3664 16.1979 13.507 16.1979 12.5C16.1979 11.4931 15.842 10.6337 15.1302 9.92192C14.4184 9.21011 13.559 8.85421 12.5521 8.85421C11.5278 8.85421 10.6641 9.21011 9.96094 9.92192C9.25781 10.6337 8.90625 11.4931 8.90625 12.5C8.90625 13.507 9.25781 14.3664 9.96094 15.0782C10.6641 15.79 11.5278 16.1459 12.5521 16.1459Z" fill="#6F5434"/>
</g>
</svg>
