<svg width="24" height="24" viewBox="0 0 24 24" fill="none" xmlns="http://www.w3.org/2000/svg">
<mask id="mask0_854_161" style="mask-type:alpha" maskUnits="userSpaceOnUse" x="0" y="0" width="24" height="24">
<rect width="24" height="24" fill="#D9D9D9"/>
</mask>
<g mask="url(#mask0_854_161)">
<path d="M12 2L23 10.25L21.8 11.85L20 10.5V20H4V10.5L2.2 11.85L1 10.25L12 2ZM7.35 11.05C7.35 11.9333 7.825 12.875 8.775 13.875C9.725 14.875 10.8 15.9167 12 17C13.2 15.9167 14.275 14.875 15.225 13.875C16.175 12.875 16.65 11.9333 16.65 11.05C16.65 10.3167 16.4 9.70833 15.9 9.225C15.4 8.74167 14.8 8.5 14.1 8.5C13.6667 8.5 13.2708 8.5875 12.9125 8.7625C12.5542 8.9375 12.25 9.16667 12 9.45C11.75 9.16667 11.4375 8.9375 11.0625 8.7625C10.6875 8.5875 10.3 8.5 9.9 8.5C9.2 8.5 8.6 8.74167 8.1 9.225C7.6 9.70833 7.35 10.3167 7.35 11.05ZM18 18V9L12 4.5L6 9V18H18Z" fill="#6F5434"/>
</g>
</svg>
