<svg width="110" height="170" viewBox="0 0 110 170" fill="none" xmlns="http://www.w3.org/2000/svg">
<ellipse cx="52.583" cy="37.3488" rx="34" ry="35.5" transform="rotate(2.33733 52.583 37.3488)" fill="#4BB9BE"/>
<ellipse cx="53.5877" cy="109.396" rx="43.2003" ry="51.304" transform="rotate(2.33733 53.5877 109.396)" fill="#4BB9BE"/>
<rect x="5.72437" y="51.0299" width="38.5378" height="7" rx="3.5" transform="rotate(-14.3728 5.72437 51.0299)" fill="#FFDA35"/>
<rect x="27.8086" y="166.331" width="23" height="5" rx="2.5" transform="rotate(-54.8961 27.8086 166.331)" fill="#FFDA35"/>
<rect x="20.3413" y="165.219" width="10" height="4" rx="2" transform="rotate(-5.27117 20.3413 165.219)" fill="#FFDA35"/>
<rect x="24.5002" y="176.529" width="16" height="4" rx="2" transform="rotate(-63.7006 24.5002 176.529)" fill="#FFDA35"/>
<rect x="77.7104" y="173.576" width="23" height="5" rx="2.5" transform="rotate(-92.0432 77.7104 173.576)" fill="#FFDA35"/>
<rect x="81.2314" y="183.702" width="16" height="4" rx="2" transform="rotate(-100.848 81.2314 183.702)" fill="#FFDA35"/>
<ellipse cx="40.7342" cy="150.495" rx="6" ry="8" transform="rotate(26.8007 40.7342 150.495)" fill="#4BB9BE"/>
<ellipse cx="79.0105" cy="149.786" rx="6" ry="12.6331" transform="rotate(-2.30704 79.0105 149.786)" fill="#4BB9BE"/>
<circle cx="54.6426" cy="35.9316" r="2" transform="rotate(2.33733 54.6426 35.9316)" fill="#4A2A04"/>
<circle cx="36.6575" cy="35.1976" r="2" transform="rotate(2.33733 36.6575 35.1976)" fill="#4A2A04"/>
</svg>
