<svg width="45" height="45" viewBox="0 0 45 45" fill="none" xmlns="http://www.w3.org/2000/svg">
<mask id="mask0_369_735" style="mask-type:alpha" maskUnits="userSpaceOnUse" x="0" y="0" width="45" height="45">
<rect width="45" height="45" fill="#D9D9D9"/>
</mask>
<g mask="url(#mask0_369_735)">
<path d="M16.4998 20.5313L20.531 16.4532L17.906 13.7813L15.8435 15.8438L13.2185 13.2188L15.2341 11.1563L13.1248 9.04691L9.04663 13.125L16.4998 20.5313ZM31.8748 35.9532L35.9529 31.875L33.8435 29.7657L31.781 31.7813L29.156 29.1563L31.1716 27.0938L28.4998 24.4688L24.4685 28.5L31.8748 35.9532ZM13.5935 39.375H5.62476V31.4063L13.8279 23.2032L3.74976 13.125L13.1248 3.75003L23.2498 13.875L30.3279 6.75003C30.7029 6.37503 31.1248 6.09378 31.5935 5.90628C32.0623 5.71878 32.5466 5.62503 33.0466 5.62503C33.5466 5.62503 34.031 5.71878 34.4998 5.90628C34.9685 6.09378 35.3904 6.37503 35.7654 6.75003L38.2498 9.28128C38.6248 9.65628 38.906 10.0782 39.0935 10.5469C39.281 11.0157 39.3748 11.5 39.3748 12C39.3748 12.5 39.281 12.9766 39.0935 13.4297C38.906 13.8828 38.6248 14.2969 38.2498 14.6719L31.1716 21.7969L41.2498 31.875L31.8748 41.25L21.7966 31.1719L13.5935 39.375ZM9.37476 35.625H11.9998L30.3748 17.2969L27.7029 14.625L9.37476 33V35.625Z" fill="#4BB9BE"/>
</g>
</svg>
